<?xml version="1.0" encoding="UTF-8"?><svg id="Layer_1" xmlns="http://www.w3.org/2000/svg" xmlns:xlink="http://www.w3.org/1999/xlink" viewBox="0 0 590 590"><defs><style>.cls-1{fill:none;}.cls-2{clip-path:url(#clippath);}.cls-3{fill:#f0e6d3;}.cls-4{fill:#fff;}.cls-5{fill:#bda26a;}.cls-6{clip-path:url(#clippath-1);}.cls-7{clip-path:url(#clippath-2);}.cls-8{opacity:.65;}</style><clipPath id="clippath"><rect class="cls-1" width="590" height="590"/></clipPath><clipPath id="clippath-1"><rect class="cls-1" width="590" height="590"/></clipPath><clipPath id="clippath-2"><rect class="cls-1" x="34.18" y="38.44" width="521.65" height="500.35"/></clipPath></defs><g class="cls-2"><g class="cls-6"><path class="cls-3" d="M295,577.22c155.87,0,282.23-126.36,282.23-282.22S450.87,12.77,295,12.77,12.77,139.13,12.77,295s126.36,282.22,282.23,282.22"/><path class="cls-5" d="M295,590C132.34,590,0,457.66,0,295S132.34,0,295,0s295,132.34,295,295-132.34,295-295,295Zm0-564.45C146.42,25.55,25.55,146.42,25.55,295s120.87,269.45,269.45,269.45,269.45-120.88,269.45-269.45S443.57,25.55,295,25.55Z"/><path class="cls-5" d="M295,496.59c111.33,0,201.59-90.26,201.59-201.59s-90.26-201.59-201.59-201.59S93.41,183.67,93.41,295s90.26,201.59,201.59,201.59"/><g class="cls-8"><g class="cls-7"><path class="cls-4" d="M295,536.66c-133.25,0-241.66-108.41-241.66-241.66S161.75,53.34,295,53.34s241.66,108.41,241.66,241.66-108.41,241.66-241.66,241.66Zm0-476.93c-129.73,0-235.27,105.54-235.27,235.27s105.54,235.27,235.27,235.27,235.27-105.54,235.27-235.27S424.73,59.73,295,59.73Z"/></g></g></g></g></svg>